<svg xmlns="http://www.w3.org/2000/svg" xmlns:xlink="http://www.w3.org/1999/xlink" width="1920" height="1176" viewBox="0 0 1920 1176"><defs><clipPath id="a"><rect width="1920" height="1176" fill="#fff" stroke="#707070" stroke-width="1"/></clipPath></defs><g clip-path="url(#a)"><g transform="matrix(-0.391, -0.921, 0.921, -0.391, -19.327, 2610.624)"><path d="M1255.8,2034.491a647.888,647.888,0,0,1-95.241-7.133c-19.7-2.929-39.471-6.777-58.777-11.437-15.445-3.728-30.627-7.982-45.123-12.642-24.7-7.94-39.04-14.4-39.182-14.466l.825-1.822c.141.064,14.416,6.493,39.027,14.4,14.453,4.645,29.589,8.884,44.99,12.6,19.248,4.644,38.965,8.478,58.6,11.4a645.937,645.937,0,0,0,94.88,7.1q26.769,0,53.038-2.314c13.924-1.228,27.9-2.97,41.536-5.177,14.354-2.323,28.73-5.224,42.727-8.625,14.68-3.566,29.351-7.779,43.6-12.522,14.9-4.959,29.761-10.635,44.167-16.87,123.654-53.522,173.015-128.3,220.75-200.619,10.686-16.189,21.736-32.929,33.346-48.926,6.248-8.609,12.176-16.35,18.122-23.667,6.668-8.205,13.194-15.68,19.953-22.85,7.25-7.691,14.8-15.031,22.433-21.816,8.159-7.25,16.759-14.168,25.558-20.563a346.545,346.545,0,0,1,29.328-19.093c10.649-6.2,22-12.053,33.739-17.408a296.3,296.3,0,0,1,42.106-15.26,418.968,418.968,0,0,1,46.72-10.2c15.676-2.544,32.694-4.522,50.58-5.878,16.681-1.265,34.745-2.036,53.69-2.291q7.355-.1,14.8-.1c69.205,0,143.75,6.2,216,12.211,35.014,2.913,71.22,5.925,105.493,8.087,18.425,1.163,34.923,2,50.438,2.562,17.382.629,33.119.9,48.112.822,16.066-.081,31.271-.579,45.194-1.481,14.863-.963,28.887-2.425,41.682-4.345a327.949,327.949,0,0,0,37.576-7.766,216.029,216.029,0,0,0,32.875-11.735,174.2,174.2,0,0,0,49.782-34.215,198.366,198.366,0,0,0,19.192-21.871,246.532,246.532,0,0,0,16.194-24.377c4.773-8.16,9.283-16.786,13.789-26.374,4.015-8.543,7.932-17.655,11.976-27.857,7.514-18.958,14.315-38.853,20.892-58.092,7.62-22.293,15.5-45.345,24.467-66.827,4.829-11.57,9.586-21.792,14.542-31.25a258.69,258.69,0,0,1,17.345-28.726,194.091,194.091,0,0,1,21.1-25.381,164.588,164.588,0,0,1,25.8-21.2,161.849,161.849,0,0,1,14.951-8.773,169.87,169.87,0,0,1,16.47-7.415,186,186,0,0,1,18.1-5.954c6.354-1.74,13.032-3.218,19.849-4.393l.34,1.971c-6.753,1.164-13.368,2.628-19.66,4.351a183.886,183.886,0,0,0-17.907,5.89,167.825,167.825,0,0,0-16.276,7.327,159.9,159.9,0,0,0-14.765,8.665,162.582,162.582,0,0,0-25.484,20.946,192.089,192.089,0,0,0-20.881,25.12,256.682,256.682,0,0,0-17.211,28.506c-4.928,9.406-9.661,19.576-14.468,31.092-8.941,21.422-16.81,44.442-24.42,66.7-6.584,19.262-13.393,39.179-20.925,58.182-4.059,10.241-7.992,19.39-12.025,27.97-4.531,9.642-9.069,18.321-13.872,26.533a248.577,248.577,0,0,1-16.326,24.576,200.406,200.406,0,0,1-19.387,22.092,176.18,176.18,0,0,1-50.348,34.6,218,218,0,0,1-33.181,11.846,329.961,329.961,0,0,1-37.806,7.814c-12.85,1.929-26.931,3.4-41.85,4.363-13.962.9-29.207,1.4-45.313,1.485-15.021.076-30.785-.194-48.194-.823-15.533-.562-32.049-1.4-50.491-2.565-34.293-2.164-70.509-5.177-105.533-8.09-72.935-6.067-147.049-12.231-215.987-12.231-78.881,0-150.992,8.065-206.917,33.574-11.679,5.327-22.971,11.153-33.564,17.317a344.566,344.566,0,0,0-29.158,18.982c-8.747,6.356-17.295,13.233-25.405,20.44-7.592,6.745-15.1,14.044-22.306,21.692-6.725,7.134-13.22,14.572-19.856,22.74-5.923,7.288-11.829,15-18.055,23.581-11.585,15.961-22.622,32.682-33.3,48.853-11.809,17.891-24.021,36.391-37.331,54.458-7.176,9.741-14.063,18.543-21.054,26.91-7.86,9.407-15.64,18.016-23.784,26.319-8.759,8.929-17.966,17.489-27.367,25.442-10.072,8.521-20.771,16.691-31.8,24.281-11.68,8.038-24.155,15.721-37.08,22.835-13.576,7.472-28.114,14.574-43.209,21.108-14.462,6.26-29.381,11.958-44.341,16.936-14.31,4.761-29.038,8.99-43.775,12.57-14.051,3.413-28.482,6.325-42.891,8.656-13.688,2.214-27.714,3.961-41.689,5.193Q1282.67,2034.492,1255.8,2034.491Z" transform="translate(-440.343 -614.732)" fill="#f3f3f3"/><path d="M1255.8,2034.491a647.888,647.888,0,0,1-95.241-7.133c-19.7-2.929-39.471-6.777-58.777-11.437-15.445-3.728-30.627-7.982-45.123-12.642-24.7-7.94-39.04-14.4-39.182-14.466l.825-1.822c.141.064,14.416,6.493,39.027,14.4,14.453,4.645,29.589,8.884,44.99,12.6,19.248,4.644,38.965,8.478,58.6,11.4a645.937,645.937,0,0,0,94.88,7.1q26.769,0,53.038-2.314c13.924-1.228,27.9-2.97,41.536-5.177,14.354-2.323,28.73-5.224,42.727-8.625,14.68-3.566,29.351-7.779,43.6-12.522,14.9-4.959,29.761-10.635,44.167-16.87,123.654-53.522,173.015-128.3,220.75-200.619,10.686-16.189,21.736-32.929,33.346-48.926,6.248-8.609,12.176-16.35,18.122-23.667,6.668-8.205,13.194-15.68,19.953-22.85,7.25-7.691,14.8-15.031,22.433-21.816,8.159-7.25,16.759-14.168,25.558-20.563a346.545,346.545,0,0,1,29.328-19.093c10.649-6.2,22-12.053,33.739-17.408a296.3,296.3,0,0,1,42.106-15.26,418.968,418.968,0,0,1,46.72-10.2c15.676-2.544,32.694-4.522,50.58-5.878,16.681-1.265,34.745-2.036,53.69-2.291q7.355-.1,14.8-.1c69.205,0,143.75,6.2,216,12.211,35.014,2.913,71.22,5.925,105.493,8.087,18.425,1.163,34.923,2,50.438,2.562,17.382.629,33.119.9,48.112.822,16.066-.081,31.271-.579,45.194-1.481,14.863-.963,28.887-2.425,41.682-4.345a327.949,327.949,0,0,0,37.576-7.766,216.029,216.029,0,0,0,32.875-11.735,174.2,174.2,0,0,0,49.782-34.215,198.366,198.366,0,0,0,19.192-21.871,246.532,246.532,0,0,0,16.194-24.377c4.773-8.16,9.283-16.786,13.789-26.374,4.015-8.543,7.932-17.655,11.976-27.857,7.514-18.958,14.315-38.853,20.892-58.092,7.62-22.293,15.5-45.345,24.467-66.827,4.829-11.57,9.586-21.792,14.542-31.25a258.69,258.69,0,0,1,17.345-28.726,194.091,194.091,0,0,1,21.1-25.381,164.588,164.588,0,0,1,25.8-21.2,161.849,161.849,0,0,1,14.951-8.773,169.87,169.87,0,0,1,16.47-7.415,186,186,0,0,1,18.1-5.954c6.354-1.74,13.032-3.218,19.849-4.393l.34,1.971c-6.753,1.164-13.368,2.628-19.66,4.351a183.886,183.886,0,0,0-17.907,5.89,167.825,167.825,0,0,0-16.276,7.327,159.9,159.9,0,0,0-14.765,8.665,162.582,162.582,0,0,0-25.484,20.946,192.089,192.089,0,0,0-20.881,25.12,256.682,256.682,0,0,0-17.211,28.506c-4.928,9.406-9.661,19.576-14.468,31.092-8.941,21.422-16.81,44.442-24.42,66.7-6.584,19.262-13.393,39.179-20.925,58.182-4.059,10.241-7.992,19.39-12.025,27.97-4.531,9.642-9.069,18.321-13.872,26.533a248.577,248.577,0,0,1-16.326,24.576,200.406,200.406,0,0,1-19.387,22.092,176.18,176.18,0,0,1-50.348,34.6,218,218,0,0,1-33.181,11.846,329.961,329.961,0,0,1-37.806,7.814c-12.85,1.929-26.931,3.4-41.85,4.363-13.962.9-29.207,1.4-45.313,1.485-15.021.076-30.785-.194-48.194-.823-15.533-.562-32.049-1.4-50.491-2.565-34.293-2.164-70.509-5.177-105.533-8.09-72.935-6.067-147.049-12.231-215.987-12.231-78.881,0-150.992,8.065-206.917,33.574-11.679,5.327-22.971,11.153-33.564,17.317a344.566,344.566,0,0,0-29.158,18.982c-8.747,6.356-17.295,13.233-25.405,20.44-7.592,6.745-15.1,14.044-22.306,21.692-6.725,7.134-13.22,14.572-19.856,22.74-5.923,7.288-11.829,15-18.055,23.581-11.585,15.961-22.622,32.682-33.3,48.853-11.809,17.891-24.021,36.391-37.331,54.458-7.176,9.741-14.063,18.543-21.054,26.91-7.86,9.407-15.64,18.016-23.784,26.319-8.759,8.929-17.966,17.489-27.367,25.442-10.072,8.521-20.771,16.691-31.8,24.281-11.68,8.038-24.155,15.721-37.08,22.835-13.576,7.472-28.114,14.574-43.209,21.108-14.462,6.26-29.381,11.958-44.341,16.936-14.31,4.761-29.038,8.99-43.775,12.57-14.051,3.413-28.482,6.325-42.891,8.656-13.688,2.214-27.714,3.961-41.689,5.193Q1282.67,2034.492,1255.8,2034.491Z" transform="translate(-406.756 -569.871)" fill="#f3f3f3"/><path d="M1255.8,2034.491a647.888,647.888,0,0,1-95.241-7.133c-19.7-2.929-39.471-6.777-58.777-11.437-15.445-3.728-30.627-7.982-45.123-12.642-24.7-7.94-39.04-14.4-39.182-14.466l.825-1.822c.141.064,14.416,6.493,39.027,14.4,14.453,4.645,29.589,8.884,44.99,12.6,19.248,4.644,38.965,8.478,58.6,11.4a645.937,645.937,0,0,0,94.88,7.1q26.769,0,53.038-2.314c13.924-1.228,27.9-2.97,41.536-5.177,14.354-2.323,28.73-5.224,42.727-8.625,14.68-3.566,29.351-7.779,43.6-12.522,14.9-4.959,29.761-10.635,44.167-16.87,123.654-53.522,173.015-128.3,220.75-200.619,10.686-16.189,21.736-32.929,33.346-48.926,6.248-8.609,12.176-16.35,18.122-23.667,6.668-8.205,13.194-15.68,19.953-22.85,7.25-7.691,14.8-15.031,22.433-21.816,8.159-7.25,16.759-14.168,25.558-20.563a346.545,346.545,0,0,1,29.328-19.093c10.649-6.2,22-12.053,33.739-17.408a296.3,296.3,0,0,1,42.106-15.26,418.968,418.968,0,0,1,46.72-10.2c15.676-2.544,32.694-4.522,50.58-5.878,16.681-1.265,34.745-2.036,53.69-2.291q7.355-.1,14.8-.1c69.205,0,143.75,6.2,216,12.211,35.014,2.913,71.22,5.925,105.493,8.087,18.425,1.163,34.923,2,50.438,2.562,17.382.629,33.119.9,48.112.822,16.066-.081,31.271-.579,45.194-1.481,14.863-.963,28.887-2.425,41.682-4.345a327.949,327.949,0,0,0,37.576-7.766,216.029,216.029,0,0,0,32.875-11.735,174.2,174.2,0,0,0,49.782-34.215,198.366,198.366,0,0,0,19.192-21.871,246.532,246.532,0,0,0,16.194-24.377c4.773-8.16,9.283-16.786,13.789-26.374,4.015-8.543,7.932-17.655,11.976-27.857,7.514-18.958,14.315-38.853,20.892-58.092,7.62-22.293,15.5-45.345,24.467-66.827,4.829-11.57,9.586-21.792,14.542-31.25a258.69,258.69,0,0,1,17.345-28.726,194.091,194.091,0,0,1,21.1-25.381,164.588,164.588,0,0,1,25.8-21.2,161.849,161.849,0,0,1,14.951-8.773,169.87,169.87,0,0,1,16.47-7.415,186,186,0,0,1,18.1-5.954c6.354-1.74,13.032-3.218,19.849-4.393l.34,1.971c-6.753,1.164-13.368,2.628-19.66,4.351a183.886,183.886,0,0,0-17.907,5.89,167.825,167.825,0,0,0-16.276,7.327,159.9,159.9,0,0,0-14.765,8.665,162.582,162.582,0,0,0-25.484,20.946,192.089,192.089,0,0,0-20.881,25.12,256.682,256.682,0,0,0-17.211,28.506c-4.928,9.406-9.661,19.576-14.468,31.092-8.941,21.422-16.81,44.442-24.42,66.7-6.584,19.262-13.393,39.179-20.925,58.182-4.059,10.241-7.992,19.39-12.025,27.97-4.531,9.642-9.069,18.321-13.872,26.533a248.577,248.577,0,0,1-16.326,24.576,200.406,200.406,0,0,1-19.387,22.092,176.18,176.18,0,0,1-50.348,34.6,218,218,0,0,1-33.181,11.846,329.961,329.961,0,0,1-37.806,7.814c-12.85,1.929-26.931,3.4-41.85,4.363-13.962.9-29.207,1.4-45.313,1.485-15.021.076-30.785-.194-48.194-.823-15.533-.562-32.049-1.4-50.491-2.565-34.293-2.164-70.509-5.177-105.533-8.09-72.935-6.067-147.049-12.231-215.987-12.231-78.881,0-150.992,8.065-206.917,33.574-11.679,5.327-22.971,11.153-33.564,17.317a344.566,344.566,0,0,0-29.158,18.982c-8.747,6.356-17.295,13.233-25.405,20.44-7.592,6.745-15.1,14.044-22.306,21.692-6.725,7.134-13.22,14.572-19.856,22.74-5.923,7.288-11.829,15-18.055,23.581-11.585,15.961-22.622,32.682-33.3,48.853-11.809,17.891-24.021,36.391-37.331,54.458-7.176,9.741-14.063,18.543-21.054,26.91-7.86,9.407-15.64,18.016-23.784,26.319-8.759,8.929-17.966,17.489-27.367,25.442-10.072,8.521-20.771,16.691-31.8,24.281-11.68,8.038-24.155,15.721-37.08,22.835-13.576,7.472-28.114,14.574-43.209,21.108-14.462,6.26-29.381,11.958-44.341,16.936-14.31,4.761-29.038,8.99-43.775,12.57-14.051,3.413-28.482,6.325-42.891,8.656-13.688,2.214-27.714,3.961-41.689,5.193Q1282.67,2034.492,1255.8,2034.491Z" transform="translate(-381.182 -514.238)" fill="#f3f3f3"/><path d="M1255.8,2034.491a647.888,647.888,0,0,1-95.241-7.133c-19.7-2.929-39.471-6.777-58.777-11.437-15.445-3.728-30.627-7.982-45.123-12.642-24.7-7.94-39.04-14.4-39.182-14.466l.825-1.822c.141.064,14.416,6.493,39.027,14.4,14.453,4.645,29.589,8.884,44.99,12.6,19.248,4.644,38.965,8.478,58.6,11.4a645.937,645.937,0,0,0,94.88,7.1q26.769,0,53.038-2.314c13.924-1.228,27.9-2.97,41.536-5.177,14.354-2.323,28.73-5.224,42.727-8.625,14.68-3.566,29.351-7.779,43.6-12.522,14.9-4.959,29.761-10.635,44.167-16.87,123.654-53.522,173.015-128.3,220.75-200.619,10.686-16.189,21.736-32.929,33.346-48.926,6.248-8.609,12.176-16.35,18.122-23.667,6.668-8.205,13.194-15.68,19.953-22.85,7.25-7.691,14.8-15.031,22.433-21.816,8.159-7.25,16.759-14.168,25.558-20.563a346.545,346.545,0,0,1,29.328-19.093c10.649-6.2,22-12.053,33.739-17.408a296.3,296.3,0,0,1,42.106-15.26,418.968,418.968,0,0,1,46.72-10.2c15.676-2.544,32.694-4.522,50.58-5.878,16.681-1.265,34.745-2.036,53.69-2.291q7.355-.1,14.8-.1c69.205,0,143.75,6.2,216,12.211,35.014,2.913,71.22,5.925,105.493,8.087,18.425,1.163,34.923,2,50.438,2.562,17.382.629,33.119.9,48.112.822,16.066-.081,31.271-.579,45.194-1.481,14.863-.963,28.887-2.425,41.682-4.345a327.949,327.949,0,0,0,37.576-7.766,216.029,216.029,0,0,0,32.875-11.735,174.2,174.2,0,0,0,49.782-34.215,198.366,198.366,0,0,0,19.192-21.871,246.532,246.532,0,0,0,16.194-24.377c4.773-8.16,9.283-16.786,13.789-26.374,4.015-8.543,7.932-17.655,11.976-27.857,7.514-18.958,14.315-38.853,20.892-58.092,7.62-22.293,15.5-45.345,24.467-66.827,4.829-11.57,9.586-21.792,14.542-31.25a258.69,258.69,0,0,1,17.345-28.726,194.091,194.091,0,0,1,21.1-25.381,164.588,164.588,0,0,1,25.8-21.2,161.849,161.849,0,0,1,14.951-8.773,169.87,169.87,0,0,1,16.47-7.415,186,186,0,0,1,18.1-5.954c6.354-1.74,13.032-3.218,19.849-4.393l.34,1.971c-6.753,1.164-13.368,2.628-19.66,4.351a183.886,183.886,0,0,0-17.907,5.89,167.825,167.825,0,0,0-16.276,7.327,159.9,159.9,0,0,0-14.765,8.665,162.582,162.582,0,0,0-25.484,20.946,192.089,192.089,0,0,0-20.881,25.12,256.682,256.682,0,0,0-17.211,28.506c-4.928,9.406-9.661,19.576-14.468,31.092-8.941,21.422-16.81,44.442-24.42,66.7-6.584,19.262-13.393,39.179-20.925,58.182-4.059,10.241-7.992,19.39-12.025,27.97-4.531,9.642-9.069,18.321-13.872,26.533a248.577,248.577,0,0,1-16.326,24.576,200.406,200.406,0,0,1-19.387,22.092,176.18,176.18,0,0,1-50.348,34.6,218,218,0,0,1-33.181,11.846,329.961,329.961,0,0,1-37.806,7.814c-12.85,1.929-26.931,3.4-41.85,4.363-13.962.9-29.207,1.4-45.313,1.485-15.021.076-30.785-.194-48.194-.823-15.533-.562-32.049-1.4-50.491-2.565-34.293-2.164-70.509-5.177-105.533-8.09-72.935-6.067-147.049-12.231-215.987-12.231-78.881,0-150.992,8.065-206.917,33.574-11.679,5.327-22.971,11.153-33.564,17.317a344.566,344.566,0,0,0-29.158,18.982c-8.747,6.356-17.295,13.233-25.405,20.44-7.592,6.745-15.1,14.044-22.306,21.692-6.725,7.134-13.22,14.572-19.856,22.74-5.923,7.288-11.829,15-18.055,23.581-11.585,15.961-22.622,32.682-33.3,48.853-11.809,17.891-24.021,36.391-37.331,54.458-7.176,9.741-14.063,18.543-21.054,26.91-7.86,9.407-15.64,18.016-23.784,26.319-8.759,8.929-17.966,17.489-27.367,25.442-10.072,8.521-20.771,16.691-31.8,24.281-11.68,8.038-24.155,15.721-37.08,22.835-13.576,7.472-28.114,14.574-43.209,21.108-14.462,6.26-29.381,11.958-44.341,16.936-14.31,4.761-29.038,8.99-43.775,12.57-14.051,3.413-28.482,6.325-42.891,8.656-13.688,2.214-27.714,3.961-41.689,5.193Q1282.67,2034.492,1255.8,2034.491Z" transform="translate(-338.604 -477.342)" fill="#f3f3f3"/></g></g></svg>