<svg xmlns="http://www.w3.org/2000/svg" width="176" height="45" viewBox="0 0 176 45"><g transform="translate(-872 -2528)"><rect width="176" height="45" rx="22.5" transform="translate(872 2528)" fill="#fc0"/><path d="M5.434.1A5.2,5.2,0,0,1,3.516-.241,4.492,4.492,0,0,1,2-1.215,4.581,4.581,0,0,1,.988-2.691,4.65,4.65,0,0,1,.624-4.55,4.65,4.65,0,0,1,.988-6.409,4.531,4.531,0,0,1,2-7.885,4.562,4.562,0,0,1,3.53-8.859,5.2,5.2,0,0,1,5.447-9.2a5.169,5.169,0,0,1,1.944.358A3.981,3.981,0,0,1,8.905-7.787l-.845.819a3.377,3.377,0,0,0-1.17-.812A3.631,3.631,0,0,0,5.5-8.047a3.831,3.831,0,0,0-1.424.26,3.413,3.413,0,0,0-1.137.728,3.285,3.285,0,0,0-.748,1.112,3.616,3.616,0,0,0-.266,1.4,3.616,3.616,0,0,0,.266,1.4,3.285,3.285,0,0,0,.748,1.112,3.413,3.413,0,0,0,1.137.728,3.831,3.831,0,0,0,1.424.26A3.631,3.631,0,0,0,6.89-1.32a3.3,3.3,0,0,0,1.17-.825l.845.819A4.044,4.044,0,0,1,7.391-.26,5.123,5.123,0,0,1,5.434.1ZM13.247.078A3.69,3.69,0,0,1,11.4-.377a3.372,3.372,0,0,1-1.274-1.255,3.522,3.522,0,0,1-.468-1.814,3.513,3.513,0,0,1,.468-1.82A3.339,3.339,0,0,1,11.4-6.507a3.732,3.732,0,0,1,1.846-.449,3.742,3.742,0,0,1,1.84.449,3.293,3.293,0,0,1,1.274,1.235,3.542,3.542,0,0,1,.462,1.826,3.551,3.551,0,0,1-.462,1.82A3.326,3.326,0,0,1,15.087-.377,3.7,3.7,0,0,1,13.247.078Zm0-1.092a2.366,2.366,0,0,0,1.19-.3,2.112,2.112,0,0,0,.825-.851,2.649,2.649,0,0,0,.3-1.281,2.6,2.6,0,0,0-.3-1.281,2.134,2.134,0,0,0-.825-.839,2.366,2.366,0,0,0-1.19-.3,2.33,2.33,0,0,0-1.183.3,2.24,2.24,0,0,0-.832.839,2.514,2.514,0,0,0-.312,1.281,2.56,2.56,0,0,0,.312,1.281,2.214,2.214,0,0,0,.832.851A2.33,2.33,0,0,0,13.247-1.014ZM22.23-6.955a3.259,3.259,0,0,1,1.489.325,2.332,2.332,0,0,1,1.008.988,3.457,3.457,0,0,1,.364,1.677V0H23.842V-3.822a2.1,2.1,0,0,0-.488-1.508,1.813,1.813,0,0,0-1.372-.507,2.45,2.45,0,0,0-1.157.26,1.781,1.781,0,0,0-.76.767A2.689,2.689,0,0,0,19.8-3.549V0H18.551V-6.89h1.2v1.859l-.195-.494a2.393,2.393,0,0,1,1.04-1.053A3.411,3.411,0,0,1,22.23-6.955ZM29.77.078a2.21,2.21,0,0,1-1.612-.559,2.135,2.135,0,0,1-.572-1.6V-8.4h1.248v6.266a1.21,1.21,0,0,0,.279.858,1.041,1.041,0,0,0,.8.3,1.472,1.472,0,0,0,.975-.325l.39.9a1.814,1.814,0,0,1-.682.364A2.9,2.9,0,0,1,29.77.078ZM26.416-5.863V-6.89H30.81v1.027ZM37.063,0V-1.456L37-1.729V-4.212a1.608,1.608,0,0,0-.462-1.229,1.951,1.951,0,0,0-1.384-.436,3.648,3.648,0,0,0-1.2.2,3.081,3.081,0,0,0-.988.539l-.52-.936a3.766,3.766,0,0,1,1.28-.657A5.351,5.351,0,0,1,35.3-6.955a3.159,3.159,0,0,1,2.184.689,2.69,2.69,0,0,1,.767,2.106V0ZM34.8.078a3.255,3.255,0,0,1-1.346-.26,2.063,2.063,0,0,1-.89-.722,1.825,1.825,0,0,1-.312-1.046,1.969,1.969,0,0,1,.266-1.014,1.846,1.846,0,0,1,.871-.728,4.029,4.029,0,0,1,1.632-.273h2.184v.9H35.074a1.863,1.863,0,0,0-1.261.312A1.007,1.007,0,0,0,33.488-2a.969.969,0,0,0,.4.813,1.814,1.814,0,0,0,1.118.306A2.364,2.364,0,0,0,36.238-1.2a1.775,1.775,0,0,0,.76-.91l.247.858a1.941,1.941,0,0,1-.871.969A3.129,3.129,0,0,1,34.8.078Zm-.39-7.969,1.768-1.69h1.586l-2.184,1.69ZM43.563.078a3.826,3.826,0,0,1-1.879-.455,3.348,3.348,0,0,1-1.293-1.248,3.513,3.513,0,0,1-.468-1.82,3.513,3.513,0,0,1,.468-1.82,3.3,3.3,0,0,1,1.293-1.241,3.871,3.871,0,0,1,1.879-.449,3.658,3.658,0,0,1,1.67.371,2.626,2.626,0,0,1,1.138,1.1l-.949.611a2.117,2.117,0,0,0-.826-.747,2.333,2.333,0,0,0-1.047-.24,2.428,2.428,0,0,0-1.209.3,2.212,2.212,0,0,0-.845.839,2.514,2.514,0,0,0-.312,1.281A2.55,2.55,0,0,0,41.5-2.158a2.2,2.2,0,0,0,.845.845,2.428,2.428,0,0,0,1.209.3,2.333,2.333,0,0,0,1.047-.24A2.117,2.117,0,0,0,45.422-2l.949.6a2.726,2.726,0,0,1-1.138,1.1A3.555,3.555,0,0,1,43.563.078Zm6.877,0a2.21,2.21,0,0,1-1.612-.559,2.135,2.135,0,0,1-.572-1.6V-8.4H49.5v6.266a1.21,1.21,0,0,0,.28.858,1.041,1.041,0,0,0,.8.3,1.472,1.472,0,0,0,.975-.325l.39.9a1.814,1.814,0,0,1-.682.364A2.9,2.9,0,0,1,50.44.078ZM47.086-5.863V-6.89H51.48v1.027ZM57.733,0V-1.456l-.065-.273V-4.212a1.608,1.608,0,0,0-.462-1.229,1.951,1.951,0,0,0-1.384-.436,3.648,3.648,0,0,0-1.2.2,3.081,3.081,0,0,0-.988.539l-.52-.936a3.766,3.766,0,0,1,1.28-.657,5.351,5.351,0,0,1,1.567-.227,3.159,3.159,0,0,1,2.184.689,2.69,2.69,0,0,1,.767,2.106V0ZM55.471.078a3.255,3.255,0,0,1-1.346-.26,2.063,2.063,0,0,1-.89-.722,1.825,1.825,0,0,1-.312-1.046,1.969,1.969,0,0,1,.266-1.014,1.846,1.846,0,0,1,.871-.728,4.029,4.029,0,0,1,1.632-.273h2.184v.9H55.744a1.863,1.863,0,0,0-1.261.312A1.007,1.007,0,0,0,54.158-2a.969.969,0,0,0,.4.813,1.814,1.814,0,0,0,1.118.306A2.364,2.364,0,0,0,56.908-1.2a1.775,1.775,0,0,0,.76-.91l.247.858a1.941,1.941,0,0,1-.871.969A3.129,3.129,0,0,1,55.471.078Zm9.438-7.033A3.259,3.259,0,0,1,66.4-6.63a2.332,2.332,0,0,1,1.007.988,3.457,3.457,0,0,1,.364,1.677V0H66.521V-3.822a2.1,2.1,0,0,0-.487-1.508,1.813,1.813,0,0,0-1.372-.507,2.45,2.45,0,0,0-1.157.26,1.781,1.781,0,0,0-.76.767,2.689,2.689,0,0,0-.267,1.261V0H61.23V-6.89h1.2v1.859l-.195-.494a2.393,2.393,0,0,1,1.04-1.053A3.411,3.411,0,0,1,64.909-6.955ZM73.034.078a3.69,3.69,0,0,1-1.846-.455,3.372,3.372,0,0,1-1.274-1.255,3.522,3.522,0,0,1-.468-1.814,3.513,3.513,0,0,1,.468-1.82,3.339,3.339,0,0,1,1.274-1.241,3.732,3.732,0,0,1,1.846-.449,3.742,3.742,0,0,1,1.84.449,3.293,3.293,0,0,1,1.274,1.235,3.542,3.542,0,0,1,.462,1.826,3.551,3.551,0,0,1-.462,1.82A3.326,3.326,0,0,1,74.873-.377,3.7,3.7,0,0,1,73.034.078Zm0-1.092a2.366,2.366,0,0,0,1.189-.3,2.112,2.112,0,0,0,.826-.851,2.649,2.649,0,0,0,.3-1.281,2.6,2.6,0,0,0-.3-1.281,2.134,2.134,0,0,0-.826-.839,2.366,2.366,0,0,0-1.189-.3,2.33,2.33,0,0,0-1.183.3,2.24,2.24,0,0,0-.832.839,2.514,2.514,0,0,0-.312,1.281,2.56,2.56,0,0,0,.312,1.281,2.214,2.214,0,0,0,.832.851A2.33,2.33,0,0,0,73.034-1.014ZM80.314.078a5.6,5.6,0,0,1-1.631-.234,3.831,3.831,0,0,1-1.216-.572l.52-.988a4.265,4.265,0,0,0,1.092.507A4.325,4.325,0,0,0,80.4-1a2.4,2.4,0,0,0,1.255-.247.777.777,0,0,0,.383-.689.606.606,0,0,0-.234-.507,1.6,1.6,0,0,0-.618-.273q-.384-.091-.852-.163T79.4-3.062a3.727,3.727,0,0,1-.858-.312,1.62,1.62,0,0,1-.624-.559,1.723,1.723,0,0,1-.234-.955,1.77,1.77,0,0,1,.351-1.092,2.224,2.224,0,0,1,.994-.721,4.161,4.161,0,0,1,1.527-.254,6.014,6.014,0,0,1,1.372.162,3.406,3.406,0,0,1,1.137.462l-.533.988a2.945,2.945,0,0,0-.975-.429,4.5,4.5,0,0,0-1.014-.117,2.243,2.243,0,0,0-1.222.266.794.794,0,0,0-.4.682.645.645,0,0,0,.241.54,1.74,1.74,0,0,0,.624.293,7.722,7.722,0,0,0,.852.176q.468.072.936.182a3.8,3.8,0,0,1,.852.306,1.651,1.651,0,0,1,.624.546,1.629,1.629,0,0,1,.241.936,1.675,1.675,0,0,1-.364,1.079A2.355,2.355,0,0,1,81.9-.176,4.444,4.444,0,0,1,80.314.078Z" transform="translate(899 2555)" fill="#012558"/><circle cx="19" cy="19" r="19" transform="translate(1006 2532)" fill="#fff" opacity="0.6"/><path d="M791.253,1582.657a.5.5,0,0,1-.354-.854l3.725-3.725-3.725-3.725a.5.5,0,0,1,.707-.707l4.078,4.078a.5.5,0,0,1,0,.707l-4.078,4.078A.5.5,0,0,1,791.253,1582.657Z" transform="translate(234.921 972.922)" fill="#012558"/><path d="M798.831,1585.578h-10.5a.5.5,0,0,1,0-1h10.5a.5.5,0,0,1,0,1Z" transform="translate(231.421 965.922)" fill="#012558"/></g></svg>