<svg xmlns="http://www.w3.org/2000/svg" width="157.09" height="30.882" viewBox="0 0 157.09 30.882"><g opacity="0.5"><path d="M23.962,13.542a4.234,4.234,0,0,0-1.211,3.392l-.021-.021a5.031,5.031,0,0,1-5.436,5.436l.021.021a4.259,4.259,0,1,0,3.846,3.843l.022.021A5.031,5.031,0,0,1,26.618,20.8l-.022-.021a4.251,4.251,0,1,0-2.631-7.235Z" transform="translate(-0.396 0.011)" fill="#012558"/><path d="M16.947,21.17l-.022-.021a4.205,4.205,0,0,0,4.606-4.6l.022.021a5.031,5.031,0,0,1,5.436-5.436l-.022-.021a4.259,4.259,0,1,0-3.843-3.843L23.1,7.246a5.03,5.03,0,0,1-5.436,5.436l.021.022a4.2,4.2,0,0,0-4.606,4.6l-.021-.021a5.032,5.032,0,0,1-5.436,5.436l.021.021a4.26,4.26,0,1,0,3.843,3.843l.022.021a5.031,5.031,0,0,1,5.436-5.436Z" transform="translate(-1.925 -1.519)" fill="#012558"/><path d="M9.331,18.994a4.229,4.229,0,0,0,1.21-3.392l.022.021A5.031,5.031,0,0,1,16,10.187l-.022-.021a4.258,4.258,0,1,0-3.843-3.843L12.116,6.3A5.031,5.031,0,0,1,6.68,11.739l.021.021a4.251,4.251,0,1,0,2.632,7.235Z" transform="translate(-2.07 -1.668)" fill="#012558"/><path d="M39.317,6.655h3.44V23.393h-3.44Z" transform="translate(3.818 -0.88)" fill="#012558"/><path d="M43.969,16.992a6.076,6.076,0,1,1,6.077,6.052,6.008,6.008,0,0,1-6.077-6.052Zm8.713,0A2.638,2.638,0,1,0,50.046,19.7a2.572,2.572,0,0,0,2.637-2.711Z" transform="translate(4.554 -0.21)" fill="#012558"/><path d="M67.984,11.254V22.14c0,3.852-3,5.48-6.053,5.48A5.862,5.862,0,0,1,56.5,24.841l2.935-1.7a2.62,2.62,0,0,0,2.614,1.444,2.285,2.285,0,0,0,2.591-2.453V21.087a4.072,4.072,0,0,1-3.348,1.49,5.826,5.826,0,0,1,0-11.647,4.072,4.072,0,0,1,3.348,1.49v-1.17Zm-3.347,5.5a2.779,2.779,0,1,0-2.774,2.664,2.594,2.594,0,0,0,2.774-2.664Z" transform="translate(6.4 -0.204)" fill="#012558"/><path d="M67.982,16.992a6.076,6.076,0,1,1,6.076,6.052,6.008,6.008,0,0,1-6.076-6.052Zm8.713,0A2.638,2.638,0,1,0,74.059,19.7,2.572,2.572,0,0,0,76.7,16.992Z" transform="translate(8.35 -0.21)" fill="#012558"/><path d="M79.861,8.838A2.064,2.064,0,1,1,81.925,10.9a2.085,2.085,0,0,1-2.064-2.064Zm.347,3.072h3.441V23.375H80.2Z" transform="translate(10.228 -0.861)" fill="#012558"/><path d="M97.64,16.986a5.757,5.757,0,0,1-5.48,6.052,4.3,4.3,0,0,1-3.415-1.4V27.3h-3.44V11.254h3.44v1.077a4.3,4.3,0,0,1,3.415-1.4,5.756,5.756,0,0,1,5.48,6.053Zm-3.44,0a2.728,2.728,0,1,0-2.727,2.8,2.617,2.617,0,0,0,2.727-2.8Z" transform="translate(11.089 -0.204)" fill="#012558"/><path d="M106.445,19.278c0,2.637-2.292,3.76-4.768,3.76a5.021,5.021,0,0,1-4.93-2.728l2.98-1.7a1.884,1.884,0,0,0,1.946,1.353c.825,0,1.238-.252,1.238-.71,0-1.262-5.641-.6-5.641-4.563,0-2.5,2.11-3.76,4.495-3.76a5.015,5.015,0,0,1,4.47,2.453L103.3,14.967a1.664,1.664,0,0,0-1.536-1.009c-.6,0-.964.232-.964.642C100.8,15.908,106.445,15.035,106.445,19.278Z" transform="translate(12.897 -0.204)" fill="#012558"/><path d="M117.472,11.209V22.674h-3.44V21.6a3.918,3.918,0,0,1-3.277,1.4c-2.316,0-4.285-1.65-4.285-4.748V11.209h3.44v6.534a1.89,1.89,0,0,0,1.994,2.085c1.261,0,2.132-.733,2.132-2.361V11.212Z" transform="translate(14.435 -0.16)" fill="#012558"/><path d="M135.347,15.68v7.039h-3.44V15.977c0-1.147-.55-1.88-1.65-1.88-1.146,0-1.789.8-1.789,2.155v6.466H125.03V15.977c0-1.147-.55-1.88-1.651-1.88-1.146,0-1.788.8-1.788,2.155v6.466h-3.44V11.253h3.44v1.054a3.518,3.518,0,0,1,3.072-1.375,3.41,3.41,0,0,1,3,1.512,3.777,3.777,0,0,1,3.325-1.512C133.623,10.934,135.347,12.813,135.347,15.68Z" transform="translate(16.281 -0.205)" fill="#012558"/><path d="M135.86,11.845a2.552,2.552,0,1,0-2.552-2.552A2.553,2.553,0,0,0,135.86,11.845Z" transform="translate(18.677 -0.866)" fill="#012558"/></g></svg>