<svg xmlns="http://www.w3.org/2000/svg" width="143.245" height="32.708" viewBox="0 0 143.245 32.708"><g opacity="0.5"><path d="M36.87,10.239h3.618V24.868H36.87Zm5.053,9.105c0-3.618,2.219-5.777,5.644-5.777s5.644,2.159,5.644,5.777-2.171,5.789-5.644,5.789S41.923,23.023,41.923,19.344Zm7.658,0c0-1.99-.784-3.16-2.014-3.16s-2,1.206-2,3.16.76,3.136,2,3.136,2.014-1.11,2.014-3.124Zm4.993,6.235h3.473A1.869,1.869,0,0,0,60,26.665c1.375,0,2.1-.748,2.1-1.833V22.805h-.072a3.425,3.425,0,0,1-3.292,1.978c-2.641,0-4.39-2.014-4.39-5.475s1.664-5.644,4.438-5.644a3.461,3.461,0,0,1,3.329,2.123h0V13.772H65.73V24.747c0,2.641-2.328,4.281-5.765,4.281-3.2,0-5.186-1.435-5.391-3.437Zm7.538-6.247c0-1.761-.808-2.87-2.086-2.87s-2.062,1.1-2.062,2.87.772,2.774,2.062,2.774,2.086-.977,2.086-2.762Zm4.981,0c0-3.618,2.219-5.777,5.644-5.777s5.656,2.159,5.656,5.777-2.171,5.789-5.656,5.789-5.644-2.1-5.644-5.777Zm7.658,0c0-1.99-.784-3.16-2.014-3.16s-1.942,1.218-1.942,3.184.76,3.136,1.99,3.136,1.966-1.122,1.966-3.136Zm5.017-8.189a1.845,1.845,0,1,1,1.881,1.8,1.761,1.761,0,0,1-1.881-1.773Zm0,2.653h3.618V24.868H79.768Zm16.751,5.536c0,3.618-1.6,5.68-4.354,5.68a3.449,3.449,0,0,1-3.377-2.05h-.072v5.451H85.1V13.772h3.618V15.75h.072a3.461,3.461,0,0,1,3.353-2.135c2.774.048,4.426,2.123,4.426,5.741Zm-3.618,0c0-1.761-.808-2.882-2.074-2.882s-2.074,1.134-2.086,2.882.82,2.87,2.086,2.87,2.074-1.1,2.074-2.846Zm9.829-5.789c3,0,4.824,1.423,4.908,3.7h-3.292c0-.784-.651-1.278-1.652-1.278s-1.447.386-1.447.953.4.748,1.206.917l2.316.47c2.207.47,3.148,1.363,3.148,3.039,0,2.291-2.086,3.763-5.162,3.763s-5.089-1.471-5.246-3.727h3.485c.109.82.76,1.3,1.821,1.3s1.544-.35,1.544-.929-.338-.7-1.206-.88l-2.086-.446c-2.159-.446-3.292-1.592-3.292-3.28.024-2.171,1.966-3.582,4.957-3.582Zm17.258,11.3H116.5V22.781h-.072a3.147,3.147,0,0,1-3.208,2.3,3.847,3.847,0,0,1-4.052-4.161V13.772h3.618v6.319c0,1.315.675,2.014,1.8,2.014a1.845,1.845,0,0,0,1.833-2.086V13.772h3.618Zm1.749-11.071h3.5v2.135h.072a3.208,3.208,0,0,1,3.148-2.34,2.882,2.882,0,0,1,3.075,2.412h.072a3.4,3.4,0,0,1,3.4-2.412,3.509,3.509,0,0,1,3.618,3.763v7.538H135V18.3c0-1.206-.543-1.761-1.556-1.761a1.579,1.579,0,0,0-1.58,1.785v6.549H128.43V18.247c0-1.11-.543-1.713-1.532-1.713a1.615,1.615,0,0,0-1.6,1.809v6.525h-3.618Z" transform="translate(4.615 -1.024)" fill="#012558"/><path d="M33.838,12.307a15.978,15.978,0,0,0-2.412-3.883A16.317,16.317,0,1,0,8.9,31.724a15.786,15.786,0,0,0,3.859,2.207,16.149,16.149,0,0,0,6.114,1.206A16.353,16.353,0,0,0,35.189,18.8a16.149,16.149,0,0,0-1.351-6.488ZM18.859,5.759a12.916,12.916,0,0,1,5.451,1.206h0a5.294,5.294,0,0,1-1.3.374,6.911,6.911,0,0,0-5.849,5.849,3.618,3.618,0,0,1-3.268,3.2,6.911,6.911,0,0,0-5.849,5.849,3.509,3.509,0,0,1-.953,2.1h0a13.025,13.025,0,0,1,11.783-18.6ZM8.886,27.238c.145-.133.289-.253.434-.4a6.609,6.609,0,0,0,1.954-3.9,3.521,3.521,0,0,1,1.049-2.195,3.413,3.413,0,0,1,2.183-1.037,6.911,6.911,0,0,0,5.849-5.849,3.522,3.522,0,0,1,1.049-2.3,3.461,3.461,0,0,1,2.207-1,6.609,6.609,0,0,0,3.618-1.725,12.675,12.675,0,0,1,2.846,3.353,1.04,1.04,0,0,1-.157.169,3.461,3.461,0,0,1-2.183,1.061,6.886,6.886,0,0,0-5.849,5.849A3.618,3.618,0,0,1,18.642,22.5a6.946,6.946,0,0,0-5.885,5.849A3.787,3.787,0,0,1,12.166,30a13.134,13.134,0,0,1-3.28-2.762Zm9.974,4.655a13.075,13.075,0,0,1-3.618-.507,6.969,6.969,0,0,0,.772-2.412,3.618,3.618,0,0,1,3.232-3.232,6.91,6.91,0,0,0,5.861-5.849,3.618,3.618,0,0,1,3.232-3.232,6.886,6.886,0,0,0,3.087-1.206A13.049,13.049,0,0,1,18.859,31.833Z" transform="translate(-2.471 -2.429)" fill="#012558"/></g></svg>