<svg xmlns="http://www.w3.org/2000/svg" width="183" height="45" viewBox="0 0 183 45"><g transform="translate(-375 -590)"><rect width="183" height="45" rx="22.5" transform="translate(375 590)" fill="#fc0"/><path d="M3.991,0l-4-9.1h1.4L5.07-.7H4.264L7.969-9.1h1.3L5.278,0Zm8.8.078a4.012,4.012,0,0,1-1.944-.455,3.279,3.279,0,0,1-1.3-1.248,3.552,3.552,0,0,1-.461-1.82,3.632,3.632,0,0,1,.448-1.82,3.238,3.238,0,0,1,1.235-1.241,3.518,3.518,0,0,1,1.774-.449,3.477,3.477,0,0,1,1.768.442,3.129,3.129,0,0,1,1.2,1.242,3.84,3.84,0,0,1,.436,1.865q0,.078-.007.182t-.019.2H10.062v-.9h5.213l-.507.312A2.317,2.317,0,0,0,14.5-4.8a2.086,2.086,0,0,0-.787-.812A2.264,2.264,0,0,0,12.545-5.9a2.273,2.273,0,0,0-1.157.293,2.061,2.061,0,0,0-.793.819,2.479,2.479,0,0,0-.286,1.2v.208a2.37,2.37,0,0,0,.319,1.229,2.188,2.188,0,0,0,.891.839,2.793,2.793,0,0,0,1.313.3,2.87,2.87,0,0,0,1.112-.208,2.434,2.434,0,0,0,.877-.624l.689.806a3.018,3.018,0,0,1-1.163.832A4.05,4.05,0,0,1,12.792.078ZM17.68,0V-6.89h1.2v1.872l-.117-.468a2.116,2.116,0,0,1,.962-1.092,3.375,3.375,0,0,1,1.664-.377v1.209a.91.91,0,0,0-.149-.013H21.1a2.117,2.117,0,0,0-1.586.6,2.372,2.372,0,0,0-.585,1.729V0ZM27.872-5.174h4.68v1.105h-4.68Zm.117,4.043h5.3V0h-6.6V-9.1h6.422v1.131H27.989ZM34.06,0l2.964-3.848-.013.637L34.19-6.89h1.391l2.158,2.834h-.533L39.364-6.89h1.365l-2.86,3.705.013-.663L40.872,0H39.455L37.18-3.016l.507.078L35.451,0ZM45.89.078a3.153,3.153,0,0,1-1.566-.4A2.879,2.879,0,0,1,43.193-1.5a4.058,4.058,0,0,1-.423-1.95,4.166,4.166,0,0,1,.41-1.95A2.756,2.756,0,0,1,44.3-6.565a3.247,3.247,0,0,1,1.592-.39,3.575,3.575,0,0,1,1.794.442,3.264,3.264,0,0,1,1.235,1.229,3.608,3.608,0,0,1,.455,1.839A3.644,3.644,0,0,1,48.919-1.6,3.25,3.25,0,0,1,47.684-.364,3.575,3.575,0,0,1,45.89.078ZM42.237,2.522V-6.89h1.2v1.859l-.078,1.6.13,1.6V2.522Zm3.549-3.536a2.366,2.366,0,0,0,1.189-.3,2.156,2.156,0,0,0,.832-.851,2.6,2.6,0,0,0,.306-1.281,2.557,2.557,0,0,0-.306-1.281,2.179,2.179,0,0,0-.832-.839,2.366,2.366,0,0,0-1.189-.3,2.34,2.34,0,0,0-1.177.3,2.179,2.179,0,0,0-.832.839,2.557,2.557,0,0,0-.306,1.281,2.6,2.6,0,0,0,.306,1.281,2.155,2.155,0,0,0,.832.851A2.34,2.34,0,0,0,45.786-1.014ZM54.171.078a4.012,4.012,0,0,1-1.944-.455,3.279,3.279,0,0,1-1.3-1.248,3.551,3.551,0,0,1-.461-1.82,3.632,3.632,0,0,1,.448-1.82A3.238,3.238,0,0,1,52.15-6.507a3.518,3.518,0,0,1,1.775-.449,3.477,3.477,0,0,1,1.768.442,3.129,3.129,0,0,1,1.2,1.242,3.84,3.84,0,0,1,.436,1.865q0,.078-.007.182t-.02.2H51.441v-.9h5.213l-.507.312A2.317,2.317,0,0,0,55.874-4.8a2.086,2.086,0,0,0-.786-.812A2.264,2.264,0,0,0,53.924-5.9a2.273,2.273,0,0,0-1.157.293,2.061,2.061,0,0,0-.793.819,2.479,2.479,0,0,0-.286,1.2v.208a2.371,2.371,0,0,0,.318,1.229,2.188,2.188,0,0,0,.891.839,2.793,2.793,0,0,0,1.313.3,2.87,2.87,0,0,0,1.111-.208,2.434,2.434,0,0,0,.877-.624l.689.806a3.018,3.018,0,0,1-1.163.832A4.05,4.05,0,0,1,54.171.078ZM59.059,0V-6.89h1.2v1.872l-.117-.468A2.116,2.116,0,0,1,61.1-6.578a3.375,3.375,0,0,1,1.664-.377v1.209a.91.91,0,0,0-.15-.013h-.136a2.117,2.117,0,0,0-1.586.6,2.372,2.372,0,0,0-.585,1.729V0ZM64.3,0V-6.89h1.248V0Zm.624-8.216a.832.832,0,0,1-.6-.234.768.768,0,0,1-.241-.572.783.783,0,0,1,.241-.585.832.832,0,0,1,.6-.234.845.845,0,0,1,.6.227.747.747,0,0,1,.241.566.816.816,0,0,1-.234.591A.814.814,0,0,1,64.922-8.216ZM70.993.078A4.012,4.012,0,0,1,69.05-.377a3.279,3.279,0,0,1-1.3-1.248,3.551,3.551,0,0,1-.462-1.82,3.632,3.632,0,0,1,.449-1.82,3.238,3.238,0,0,1,1.235-1.241,3.518,3.518,0,0,1,1.774-.449,3.477,3.477,0,0,1,1.768.442,3.129,3.129,0,0,1,1.2,1.242,3.84,3.84,0,0,1,.436,1.865q0,.078-.007.182t-.02.2H68.263v-.9h5.213l-.507.312A2.317,2.317,0,0,0,72.7-4.8a2.086,2.086,0,0,0-.786-.812A2.264,2.264,0,0,0,70.746-5.9a2.273,2.273,0,0,0-1.157.293,2.061,2.061,0,0,0-.793.819,2.479,2.479,0,0,0-.286,1.2v.208a2.37,2.37,0,0,0,.319,1.229,2.188,2.188,0,0,0,.89.839,2.793,2.793,0,0,0,1.313.3,2.87,2.87,0,0,0,1.111-.208,2.434,2.434,0,0,0,.878-.624l.689.806a3.018,3.018,0,0,1-1.163.832A4.05,4.05,0,0,1,70.993.078ZM79.56-6.955a3.259,3.259,0,0,1,1.489.325,2.332,2.332,0,0,1,1.007.988,3.457,3.457,0,0,1,.364,1.677V0H81.172V-3.822a2.1,2.1,0,0,0-.487-1.508,1.813,1.813,0,0,0-1.372-.507,2.45,2.45,0,0,0-1.157.26,1.781,1.781,0,0,0-.76.767,2.689,2.689,0,0,0-.267,1.261V0H75.881V-6.89h1.2v1.859l-.195-.494a2.393,2.393,0,0,1,1.04-1.053A3.411,3.411,0,0,1,79.56-6.955ZM87.737.078a3.826,3.826,0,0,1-1.878-.455,3.348,3.348,0,0,1-1.294-1.248,3.513,3.513,0,0,1-.468-1.82,3.513,3.513,0,0,1,.468-1.82,3.3,3.3,0,0,1,1.294-1.241,3.871,3.871,0,0,1,1.878-.449,3.658,3.658,0,0,1,1.671.371,2.626,2.626,0,0,1,1.138,1.1l-.949.611a2.117,2.117,0,0,0-.826-.747,2.333,2.333,0,0,0-1.046-.24,2.428,2.428,0,0,0-1.209.3,2.212,2.212,0,0,0-.845.839,2.514,2.514,0,0,0-.312,1.281,2.55,2.55,0,0,0,.312,1.287,2.2,2.2,0,0,0,.845.845,2.428,2.428,0,0,0,1.209.3,2.333,2.333,0,0,0,1.046-.24A2.117,2.117,0,0,0,89.6-2l.949.6a2.726,2.726,0,0,1-1.138,1.1A3.555,3.555,0,0,1,87.737.078ZM92.066,0V-6.89h1.248V0Zm.624-8.216a.832.832,0,0,1-.6-.234.768.768,0,0,1-.241-.572.783.783,0,0,1,.241-.585.832.832,0,0,1,.6-.234.845.845,0,0,1,.6.227.747.747,0,0,1,.241.566.816.816,0,0,1-.234.591A.814.814,0,0,1,92.69-8.216ZM99.97,0V-1.456l-.065-.273V-4.212a1.608,1.608,0,0,0-.462-1.229,1.951,1.951,0,0,0-1.384-.436,3.648,3.648,0,0,0-1.2.2,3.081,3.081,0,0,0-.988.539l-.52-.936a3.766,3.766,0,0,1,1.281-.657A5.35,5.35,0,0,1,98.2-6.955a3.159,3.159,0,0,1,2.184.689,2.69,2.69,0,0,1,.767,2.106V0ZM97.708.078a3.255,3.255,0,0,1-1.345-.26A2.063,2.063,0,0,1,95.472-.9,1.825,1.825,0,0,1,95.16-1.95a1.969,1.969,0,0,1,.266-1.014,1.846,1.846,0,0,1,.871-.728,4.029,4.029,0,0,1,1.632-.273h2.184v.9H97.981a1.863,1.863,0,0,0-1.261.312A1.007,1.007,0,0,0,96.4-2a.969.969,0,0,0,.4.813,1.814,1.814,0,0,0,1.118.306A2.364,2.364,0,0,0,99.145-1.2a1.775,1.775,0,0,0,.761-.91l.247.858a1.941,1.941,0,0,1-.871.969A3.129,3.129,0,0,1,97.708.078Z" transform="translate(396 617)" fill="#012558"/><circle cx="19" cy="19" r="19" transform="translate(516 594)" fill="#fff" opacity="0.6"/><path d="M791.253,1582.657a.5.5,0,0,1-.354-.854l3.725-3.725-3.725-3.725a.5.5,0,0,1,.707-.707l4.078,4.078a.5.5,0,0,1,0,.707l-4.078,4.078A.5.5,0,0,1,791.253,1582.657Z" transform="translate(-255.079 -965.078)" fill="#012558"/><path d="M798.831,1585.578h-10.5a.5.5,0,0,1,0-1h10.5a.5.5,0,0,1,0,1Z" transform="translate(-258.579 -972.078)" fill="#012558"/></g></svg>